<?xml version="1.0" encoding="utf-8"?>
<!-- Generator: Adobe Illustrator 23.0.3, SVG Export Plug-In . SVG Version: 6.00 Build 0)  -->
<svg version="1.1" id="Layer_1" xmlns="http://www.w3.org/2000/svg" xmlns:xlink="http://www.w3.org/1999/xlink" x="0px" y="0px"
	 viewBox="0 0 100 100" style="enable-background:new 0 0 100 100;" xml:space="preserve">
<style type="text/css">
	.st0{fill:#FFFFFF;}
	.st1{fill:#D3A5A5;}
</style>
<title>footer-instagram</title>
<g>
	<path class="st0" d="M50,57.1c3.9,0,7.1-3.2,7.1-7.1c0-1.1-0.3-2.2-0.7-3.2c-1.2-2.3-3.6-3.9-6.3-3.9s-5.2,1.6-6.3,3.9
		c-0.5,1-0.7,2-0.7,3.2C42.9,53.9,46.1,57.1,50,57.1z"/>
	<path class="st0" d="M61.7,46.9c0.3,1,0.4,2.1,0.4,3.2c0,6.7-5.4,12.1-12.1,12.1c-6.7,0-12.1-5.4-12.1-12.1c0-1.1,0.2-2.1,0.4-3.1
		h-6c0,0.9,0,1.9,0,3.1c0,6.2,0,6.9,0.1,9.3l0,0l0,0c0,1.3,0.3,2.6,0.7,3.8c0.6,1.7,2,3,3.6,3.6c1.2,0.5,2.5,0.7,3.9,0.7l0,0l0,0
		c2.4,0.1,3.2,0.1,9.3,0.1c6.2,0,6.9,0,9.3-0.1l0,0l0,0c1.3,0,2.6-0.3,3.8-0.7c1.7-0.6,3-2,3.6-3.6c0.5-1.2,0.7-2.5,0.7-3.9
		c0.1-2.4,0.1-3.2,0.1-9.3c0-1.3,0-2.3,0-3.1H61.7z"/>
	<path class="st0" d="M50,0C22.4,0,0,22.4,0,50s22.4,50,50,50s50-22.4,50-50S77.6,0,50,0z M74.5,59.6c0,2.1-0.4,4.1-1.2,6.1
		c-1.3,3.5-4.1,6.3-7.6,7.6c-2,0.7-4,1.1-6.1,1.2c-2.6,0.1-3.4,0.1-9.7,0.1c-6.3,0-7.1,0-9.6-0.1c-2.1,0-4.1-0.4-6.1-1.2
		c-3.5-1.3-6.3-4.1-7.6-7.6c-0.7-2-1.1-4-1.2-6.1c-0.1-2.5-0.1-3.4-0.1-9.7c0-6.3,0-7.1,0.1-9.6c0-2.1,0.4-4.1,1.2-6.1
		c1.3-3.5,4.1-6.3,7.6-7.6c2-0.7,4-1.1,6.1-1.2c2.5-0.1,3.3-0.1,9.7-0.1c6.3,0,7.1,0,9.6,0.1c2.1,0,4.1,0.4,6.1,1.2
		c3.5,1.3,6.3,4.1,7.6,7.6c0.7,2,1.1,4,1.2,6.1c0.1,2.5,0.1,3.3,0.1,9.7C74.7,56.3,74.6,57.1,74.5,59.6z"/>
	<path class="st0" d="M62.1,40.6c1.7,0,3.1-1.4,3.1-3.1c0-1.7-1.4-3.1-3.1-3.1c-1.7,0-3.1,1.4-3.1,3.1C59,39.2,60.4,40.6,62.1,40.6z
		"/>
</g>
<circle class="st1" cx="-63.3" cy="33.3" r="50"/>
<path d="M-38.8,23.7c0-2.1-0.4-4.1-1.2-6.1c-1.4-3.5-4.1-6.3-7.6-7.6c-2-0.7-4-1.1-6.1-1.2c-2.5-0.1-3.3-0.1-9.6-0.1
	c-6.3,0-7.1,0-9.7,0.1c-2.1,0-4.1,0.4-6.1,1.2c-3.5,1.4-6.3,4.1-7.6,7.6c-0.7,2-1.1,4-1.2,6.1C-88,26.2-88,27-88,33.3
	c0,6.3,0,7.1,0.1,9.7c0,2.1,0.4,4.1,1.2,6.1c1.4,3.5,4.1,6.3,7.6,7.6c2,0.7,4,1.1,6.1,1.2c2.5,0.1,3.3,0.1,9.6,0.1
	c6.2,0,7.1,0,9.7-0.1c2.1,0,4.1-0.4,6.1-1.2c3.5-1.4,6.3-4.1,7.6-7.6c0.7-2,1.1-4,1.2-6.1c0.1-2.5,0.1-3.3,0.1-9.6
	C-38.7,27-38.7,26.2-38.8,23.7z M-51.2,17.7c1.7,0,3.1,1.4,3.1,3.1c0,1.7-1.4,3.1-3.1,3.1s-3.1-1.4-3.1-3.1
	C-54.3,19.1-52.9,17.7-51.2,17.7z M-69.7,30.2c1.2-2.3,3.6-3.9,6.3-3.9s5.2,1.6,6.3,3.9c0.5,1,0.7,2,0.7,3.2c0,3.9-3.2,7.1-7.1,7.1
	c-3.9,0-7.1-3.2-7.1-7.1C-70.4,32.2-70.1,31.1-69.7,30.2z M-45.8,42.7c0,1.4-0.3,2.7-0.7,3.9c-0.6,1.6-2,3-3.6,3.6
	c-1.2,0.5-2.5,0.7-3.8,0.7l0,0l0,0c-2.4,0.1-3.2,0.1-9.3,0.1c-6.2,0-6.9,0-9.3-0.1l0,0l0,0c-1.3,0-2.6-0.3-3.9-0.7
	c-1.6-0.6-3-2-3.6-3.6c-0.5-1.2-0.7-2.5-0.7-3.8l0,0l0,0c-0.1-2.4-0.1-3.2-0.1-9.3c0-1.3,0-2.3,0-3.1h6c-0.3,1-0.4,2.1-0.4,3.1
	c0,6.7,5.4,12.1,12.1,12.1c6.7,0,12.1-5.4,12.1-12.1c0-1.1-0.2-2.1-0.4-3.2h6c0,0.9,0,1.9,0,3.1C-45.6,39.5-45.7,40.2-45.8,42.7z"/>
</svg>
