<?xml version="1.0" encoding="utf-8"?>
<!-- Generator: Adobe Illustrator 19.2.1, SVG Export Plug-In . SVG Version: 6.00 Build 0)  -->
<svg version="1.1" id="Layer_1" xmlns="http://www.w3.org/2000/svg" xmlns:xlink="http://www.w3.org/1999/xlink" x="0px" y="0px"
	 viewBox="0 0 100 100" style="enable-background:new 0 0 100 100;" xml:space="preserve">
<style type="text/css">
	.st0{display:none;}
	.st1{display:inline;fill:#1C1A1E;}
	.st2{display:none;fill:none;}
	.st3{fill:#FFFFFF;}
	.st4{display:inline;}
	.st5{fill:none;stroke:#AF2828;stroke-miterlimit:10;}
</style>
<g id="Layer_2" class="st0">
	<rect class="st1" width="100" height="100"/>
</g>
<g id="Layer_1_1_">
	<path class="st2" d="M5.9,146.3c-1-0.1-2-0.2-3-0.2c1.2,0.1,2.4,0.2,3.6,0.3C6.3,146.4,6.1,146.3,5.9,146.3z"/>
	<path class="st3" d="M50,0L50,0C22.4,0,0,22.4,0,50l0,0c0,27.6,22.4,50,50,50l0,0c27.6,0,50-22.4,50-50l0,0C100,22.4,77.6,0,50,0z
		 M70.4,40.1c-0.4,0.3-0.6,0.7-0.6,1.2c0.1,3-0.3,5.9-1.2,8.7c-3.6,11.2-11,18.3-22.7,20.5c-0.6,0.1-1.2,0.2-1.9,0.3
		c-1.9,0.2-3.7,0.2-5.3,0h-0.1c-0.2,0-0.3,0-0.5,0c-6.2-0.6-10.6-3-12.3-4.1c2.6,0.1,5.1-0.2,7.6-0.9c2.5-0.7,4.8-1.9,7-3.6
		c-2.3-0.2-4.2-0.7-5.9-2c-1.7-1.2-2.9-2.8-3.6-4.8c1.4-0.1,2.8-0.1,4.2-0.2c0-0.1,0-0.2,0.1-0.3c-2.3-0.6-4.2-1.7-5.6-3.5
		c-1.5-1.8-2.2-3.9-2.3-6.4c1.5,0.7,2.8,1.2,4.4,1.1c-2-1.6-3.5-3.6-4-6.1c-0.6-2.5-0.3-4.9,1.1-7.3c5.6,6.5,12.5,10,21,10.6
		c-0.1-0.5-0.1-0.8-0.1-1.2c-0.4-4.3,1.2-7.8,4.9-9.9c3.8-2.2,7.7-2,11.1,0.6c1.4,1.1,2.5,1.1,3.9,0.5c1-0.4,2.1-0.9,3.1-1.3
		c0.2-0.1,0.4-0.2,0.7-0.3c-0.8,2.3-2.3,4-4.2,5.3c0,0.1,0.1,0.2,0.1,0.2c1.7-0.5,3.5-0.9,5.2-1.4C73.5,37.3,72.1,38.8,70.4,40.1z"
		/>
	<path class="st0" d="M-64.9,125.2C-43.7,136.8-21.2,144,2.9,146c-37.4-3.8-64-18.3-74.1-24.7c-0.1,0-0.3,0-0.4,0
		C-69.4,122.7-67.1,124-64.9,125.2z"/>
</g>
<g id="Layer_3" class="st0">
	<g class="st4">
		<g>
			<polyline class="st5" points="74.2,53.7 74.2,73.7 54.2,73.7 			"/>
			<polyline class="st5" points="46.2,73.7 26.2,73.7 26.2,53.7 			"/>
			<polyline class="st5" points="26.2,46.7 26.2,26.7 46.2,26.7 			"/>
			<polyline class="st5" points="54.2,26.7 74.2,26.7 74.2,46.7 			"/>
		</g>
	</g>
</g>
</svg>
