<?xml version="1.0" encoding="utf-8"?>
<!-- Generator: Adobe Illustrator 19.2.1, SVG Export Plug-In . SVG Version: 6.00 Build 0)  -->
<svg version="1.1" xmlns="http://www.w3.org/2000/svg" xmlns:xlink="http://www.w3.org/1999/xlink" x="0px" y="0px"
	 viewBox="0 0 100 100" style="enable-background:new 0 0 100 100;" xml:space="preserve">
<style type="text/css">
	.st0{display:none;}
	.st1{display:inline;fill:#1C1A1E;}
	.st2{display:none;fill:#FFFFFF;}
	.st3{fill:#FFFFFF;}
	.st4{display:inline;}
	.st5{fill:none;stroke:#AF2828;stroke-miterlimit:10;}
</style>
<g id="Layer_2" class="st0">
	<rect class="st1" width="100" height="100"/>
</g>
<g id="Layer_1">
	<path class="st2" d="M50,100L50,100C22.4,100,0,77.6,0,50v0C0,22.4,22.4,0,50,0h0c27.6,0,50,22.4,50,50v0C100,77.6,77.6,100,50,100
		z"/>
	<path class="st2" d="M50,0L50,0C22.4,0,0,22.4,0,50v0c0,27.6,22.4,50,50,50h0c27.6,0,50-22.4,50-50v0C100,22.4,77.6,0,50,0z
		 M37,57.6c0,4.9,0,9.7,0,14.6c0,0.7,0.1,0.7-0.6,0.7c-2.7,0-5.4,0-8.1,0c-0.5,0-0.6-0.1-0.6-0.6c0-9.8,0-19.7,0-29.5
		c0-0.5,0.1-0.6,0.6-0.6c2.7,0,5.5,0,8.2,0c0.5,0,0.6,0.1,0.6,0.7C37.1,47.8,37,52.7,37,57.6z M32.4,38c-3,0-5.4-2.5-5.4-5.5
		c0-2.9,2.5-5.5,5.4-5.5c3.2,0,5.5,2.4,5.5,5.5C37.9,35.6,35.6,38,32.4,38z M72.4,73c-2.8,0-5.5,0-8.3,0c-0.5,0-0.6-0.1-0.6-0.6
		c0-5.5,0-10.9,0-16.4c0-1.2-0.2-2.4-0.7-3.6c-0.5-1.1-1.3-2-2.5-2.3c-1.4-0.4-2.8-0.3-4.2,0.1c-1.7,0.6-2.6,1.9-3,3.6
		c-0.3,1.1-0.4,2.3-0.4,3.4c0,5,0,10,0,15c0,0.7,0,0.7-0.7,0.7c-2.7,0-5.4,0-8,0c-0.7,0-1,0-1-0.7c0-9.8,0-19.5,0-29.3
		c0-0.7,0.1-0.7,0.8-0.7c2.6,0,5.3,0,7.8,0c0.5,0,0.7,0.1,0.7,0.6c0,1,0,2,0,3.1c0,0.2,0,0.3,0.1,0.6c0.4-0.3,0.6-0.8,0.9-1.2
		c1.5-1.9,3.6-3,6-3.5c2.6-0.5,5.2-0.2,7.7,0.8c2.1,0.9,3.6,2.4,4.5,4.4c0.8,1.8,1.1,3.6,1.3,5.6C73,55.3,73,58,73,60.8
		c0,3.8,0,7.7,0,11.5C73,72.8,72.9,73,72.4,73z"/>
	<path class="st3" d="M45,57.3c5-2.3,8-4.6,12-6.9c-4-2.3-7-4.6-12-6.9C45,48.1,45,52.7,45,57.3z"/>
	<path class="st3" d="M50,0L50,0C22.4,0,0,22.4,0,50v0c0,27.6,22.4,50,50,50h0c27.6,0,50-22.4,50-50v0C100,22.4,77.6,0,50,0z
		 M73.1,53.1c-0.1,2.5-0.3,5.1-0.7,7.6c-0.3,1.8-1.2,3.3-2.7,4.3c-0.9,0.6-1.9,0.8-2.9,0.9c-2.7,0.4-5.4,0.5-8,0.6
		c-3.8,0.1-7.7,0.2-11.5,0.1c-2.6,0-5.1-0.1-7.7-0.2c-2.2-0.1-4.3-0.2-6.5-0.5c-3-0.4-4.8-2.2-5.3-5.1c-0.4-2.2-0.6-4.4-0.7-6.6
		c-0.1-2.6-0.1-5.2,0-7.8c0.1-2.1,0.3-4.3,0.7-6.4c0.5-2.3,1.8-3.9,4-4.6c0.9-0.3,1.9-0.4,2.8-0.5c2.5-0.3,5.1-0.4,7.6-0.4
		c2.6-0.1,5.2-0.1,8-0.1c3.4,0,6.9,0.1,10.5,0.2c2,0.1,4.1,0.2,6.1,0.5c1.5,0.2,2.9,0.7,4,1.8c0.9,1,1.4,2.1,1.6,3.4
		c0.3,1.8,0.5,3.6,0.6,5.4C73.2,48.1,73.2,50.6,73.1,53.1z"/>
</g>
<g id="Layer_3" class="st0">
	<g class="st4">
		<g>
			<polyline class="st5" points="74.2,53.7 74.2,73.7 54.2,73.7 			"/>
			<polyline class="st5" points="46.2,73.7 26.2,73.7 26.2,53.7 			"/>
			<polyline class="st5" points="26.2,46.7 26.2,26.7 46.2,26.7 			"/>
			<polyline class="st5" points="54.2,26.7 74.2,26.7 74.2,46.7 			"/>
		</g>
	</g>
</g>
</svg>
